<svg width="27" height="27" viewBox="0 0 27 27" fill="none" xmlns="http://www.w3.org/2000/svg">
<path d="M1.96874 18.1369L1.96892 18.1374C2.62049 19.6483 3.50018 20.9526 4.60711 22.0596C5.71403 23.1665 7.01838 24.0462 8.52932 24.6977L8.52974 24.6979C10.0213 25.342 11.6191 25.6667 13.3333 25.6667C15.0475 25.6667 16.6454 25.342 18.1369 24.6979L18.1374 24.6977C19.6483 24.0462 20.9526 23.1665 22.0596 22.0596C23.1665 20.9526 24.0462 19.6483 24.6977 18.1374L24.6979 18.1369C25.342 16.6454 25.6667 15.0475 25.6667 13.3333C25.6667 11.6191 25.342 10.0213 24.6979 8.52974L24.6977 8.52932C24.0462 7.01838 23.1665 5.71403 22.0596 4.60711C20.9526 3.50019 19.6483 2.62005 18.1374 1.96759L1.96874 18.1369ZM1.96874 18.1369C1.32471 16.6454 1 15.0475 1 13.3333C1 11.6191 1.32471 10.0213 1.96874 8.52974L1.96892 8.52932M1.96874 18.1369L1.96892 8.52932M1.96892 8.52932C2.62049 7.01838 3.50018 5.71403 4.60711 4.60711M1.96892 8.52932L4.60711 4.60711M4.60711 4.60711C5.71413 3.50009 7.01862 2.61988 8.52974 1.96741M4.60711 4.60711L8.52974 1.96741M8.52974 1.96741C10.0213 1.32427 11.6191 1 13.3333 1M8.52974 1.96741L13.3333 1M13.3333 1C15.0476 1 16.6454 1.32427 18.1369 1.96741L13.3333 1Z" stroke="#BEBEBE" stroke-width="2"/>
<path d="M13.3333 21.3333C12.2266 21.3333 11.1866 21.1231 10.2133 20.7029C9.23998 20.2831 8.39331 19.7133 7.67331 18.9933C6.95331 18.2733 6.38345 17.4266 5.96371 16.4533C5.54345 15.4799 5.33331 14.4399 5.33331 13.3333C5.33331 12.2266 5.54345 11.1866 5.96371 10.2133C6.38345 9.23992 6.95331 8.39325 7.67331 7.67325C8.39331 6.95325 9.23998 6.38312 10.2133 5.96285C11.1866 5.54312 12.2266 5.33325 13.3333 5.33325C14.44 5.33325 15.48 5.54312 16.4533 5.96285C17.4266 6.38312 18.2733 6.95325 18.9933 7.67325C19.7133 8.39325 20.2832 9.23992 20.7029 10.2133C21.1232 11.1866 21.3333 12.2266 21.3333 13.3333C21.3333 14.4399 21.1232 15.4799 20.7029 16.4533C20.2832 17.4266 19.7133 18.2733 18.9933 18.9933C18.2733 19.7133 17.4266 20.2831 16.4533 20.7029C15.48 21.1231 14.44 21.3333 13.3333 21.3333Z" fill="#BEBEBE"/>
</svg>
